<svg xmlns="http://www.w3.org/2000/svg" viewBox="0 0 24 24" role="img" aria-label="Project Configurator">
  <path d="M1.8 19V5.5c0-1.2 1-2.2 2.2-2.2h5.6c1 0 1.7.4 2.2 1.2l2 3.5c.3.6.9.9 1.7.9h5.2c1.2 0 2.2 1 2.2 2.2v1.2" fill="none" stroke="#172B4D" stroke-linecap="round" stroke-linejoin="round" stroke-width="2.4"/>
  <path d="M1.8 19 4.2 13c.4-1 1.3-1.6 2.5-1.6h13.8c1.3 0 2 .9 1.6 2.2l-2 5.4c-.5 1.2-1.5 1.8-2.8 1.8H3.2c-1.3 0-2-.8-1.4-1.8z" fill="none" stroke="#172B4D" stroke-linecap="round" stroke-linejoin="round" stroke-width="2.4"/>
</svg>
